<?xml version="1.0" encoding="UTF-8" standalone="no"?>
<svg
   xmlns:dc="http://purl.org/dc/elements/1.1/"
   xmlns:cc="http://creativecommons.org/ns#"
   xmlns:rdf="http://www.w3.org/1999/02/22-rdf-syntax-ns#"
   xmlns:svg="http://www.w3.org/2000/svg"
   xmlns="http://www.w3.org/2000/svg"
   xmlns:sodipodi="http://sodipodi.sourceforge.net/DTD/sodipodi-0.dtd"
   xmlns:inkscape="http://www.inkscape.org/namespaces/inkscape"
   width="105.80000000000001mm"
   height="85.8mm"
   viewBox="0 0 105800.00000000001 85800"
   version="1.1"
   id="svg46"
   sodipodi:docname="C.svg"
   inkscape:version="0.92.1 r15371">
  <metadata
     id="metadata50">
    <rdf:RDF>
      <cc:Work
         rdf:about="">
        <dc:format>image/svg+xml</dc:format>
        <dc:type
           rdf:resource="http://purl.org/dc/dcmitype/StillImage" />
        <dc:title></dc:title>
      </cc:Work>
    </rdf:RDF>
  </metadata>
  <sodipodi:namedview
     pagecolor="#ffffff"
     bordercolor="#666666"
     borderopacity="1"
     objecttolerance="10"
     gridtolerance="10"
     guidetolerance="10"
     inkscape:pageopacity="0"
     inkscape:pageshadow="2"
     inkscape:window-width="640"
     inkscape:window-height="480"
     id="namedview48"
     showgrid="false"
     inkscape:zoom="0.71772603"
     inkscape:cx="199.93701"
     inkscape:cy="162.14174"
     inkscape:window-x="0"
     inkscape:window-y="0"
     inkscape:window-maximized="0"
     inkscape:current-layer="svg46" />
  <defs
     id="defs22">
    <radialGradient
       cx="69000"
       cy="40000"
       r="2500"
       gradientUnits="userSpaceOnUse"
       id="color-1">
      <stop
         offset="0.48"
         stop-color="#f44336"
         id="stop2" />
      <stop
         offset="0.48"
         stop-color="#b71c1c"
         id="stop4" />
    </radialGradient>
    <radialGradient
       cx="32000"
       cy="40000"
       r="2500"
       gradientUnits="userSpaceOnUse"
       id="color-2">
      <stop
         offset="0.48"
         stop-color="#f44336"
         id="stop7" />
      <stop
         offset="0.48"
         stop-color="#b71c1c"
         id="stop9" />
    </radialGradient>
    <radialGradient
       cx="69000"
       cy="61000"
       r="2020"
       gradientUnits="userSpaceOnUse"
       id="color-3">
      <stop
         offset="1"
         stop-color="#ef5350"
         id="stop12" />
      <stop
         offset="1"
         stop-color="#b71c1c"
         id="stop14" />
    </radialGradient>
    <radialGradient
       cx="32000"
       cy="61000"
       r="2020"
       gradientUnits="userSpaceOnUse"
       id="color-4">
      <stop
         offset="1"
         stop-color="#ef5350"
         id="stop17" />
      <stop
         offset="1"
         stop-color="#b71c1c"
         id="stop19" />
    </radialGradient>
  </defs>
  <g
     stroke-width="none"
     stroke-miterlimit="10"
     font-weight="none"
     font-size="none"
     text-anchor="none"
     style="font-family:none;mix-blend-mode:normal;fill:none;fill-rule:nonzero;stroke:none;stroke-linecap:butt;stroke-linejoin:miter;stroke-miterlimit:10;stroke-dasharray:none;stroke-dashoffset:0"
     id="g44"
     transform="matrix(-1,0,0,1,105000,0)">
    <path
       d="m 68750,40000 c 0,-138.071 111.929,-250 250,-250 v 0 c 138.071,0 250,111.929 250,250 v 20000 c 0,138.071 -111.929,250 -250,250 v 0 c -138.071,0 -250,-111.929 -250,-250 z"
       id="path24"
       inkscape:connector-curvature="0"
       style="fill:#b71c1c;stroke-width:0" />
    <path
       d="m 31750,40000 c 0,-138.071 111.929,-250 250,-250 v 0 c 138.071,0 250,111.929 250,250 v 20000 c 0,138.071 -111.929,250 -250,250 v 0 c -138.071,0 -250,-111.929 -250,-250 z"
       id="path26"
       inkscape:connector-curvature="0"
       style="fill:#b71c1c;stroke-width:0" />
    <path
       d="M 105000,-400 V 400 H 0 v -800 z"
       id="path28"
       inkscape:connector-curvature="0"
       style="fill:#b71c1c;stroke-width:0" />
    <path
       d="m 105400,85000 h -800 V 0 h 800 z"
       id="path30"
       inkscape:connector-curvature="0"
       style="fill:#b71c1c;stroke-width:0" />
    <path
       d="m 0,85400 v -800 h 105000 v 800 z"
       id="path32"
       inkscape:connector-curvature="0"
       style="fill:#b71c1c;stroke-width:0" />
    <path
       d="M -400,0 H 400 V 85000 H -400 Z"
       id="path34"
       inkscape:connector-curvature="0"
       style="fill:#b71c1c;stroke-width:0" />
    <path
       d="m 66500,40000 c 0,-1380.712 1119.288,-2500 2500,-2500 1380.712,0 2500,1119.288 2500,2500 0,1380.712 -1119.288,2500 -2500,2500 -1380.712,0 -2500,-1119.288 -2500,-2500 z"
       id="path36"
       style="fill:url(#color-1);stroke-width:1"
       inkscape:connector-curvature="0" />
    <path
       d="m 29500,40000 c 0,-1380.712 1119.288,-2500 2500,-2500 1380.712,0 2500,1119.288 2500,2500 0,1380.712 -1119.288,2500 -2500,2500 -1380.712,0 -2500,-1119.288 -2500,-2500 z"
       id="path38"
       style="fill:url(#color-2);stroke-width:1"
       inkscape:connector-curvature="0" />
    <path
       d="m 66980,61000 c 0,-1115.615 904.385,-2020 2020,-2020 1115.615,0 2020,904.385 2020,2020 0,1115.615 -904.385,2020 -2020,2020 -1115.615,0 -2020,-904.385 -2020,-2020 z"
       id="path40"
       style="fill:url(#color-3);stroke-width:1"
       inkscape:connector-curvature="0" />
    <path
       d="m 29980,61000 c 0,-1115.615 904.385,-2020 2020,-2020 1115.615,0 2020,904.385 2020,2020 0,1115.615 -904.385,2020 -2020,2020 -1115.615,0 -2020,-904.385 -2020,-2020 z"
       id="path42"
       style="fill:url(#color-4);stroke-width:1"
       inkscape:connector-curvature="0" />
  </g>
</svg>
