<?xml version="1.0" encoding="UTF-8" standalone="no"?>
<svg
   xmlns:dc="http://purl.org/dc/elements/1.1/"
   xmlns:cc="http://creativecommons.org/ns#"
   xmlns:rdf="http://www.w3.org/1999/02/22-rdf-syntax-ns#"
   xmlns:svg="http://www.w3.org/2000/svg"
   xmlns="http://www.w3.org/2000/svg"
   xmlns:sodipodi="http://sodipodi.sourceforge.net/DTD/sodipodi-0.dtd"
   xmlns:inkscape="http://www.inkscape.org/namespaces/inkscape"
   width="105.80000000000001mm"
   height="85.80000000000003mm"
   viewBox="0 0 105800.00000000001 85800.00000000003"
   version="1.1"
   id="svg42"
   sodipodi:docname="F.svg"
   inkscape:version="0.92.1 r15371">
  <metadata
     id="metadata46">
    <rdf:RDF>
      <cc:Work
         rdf:about="">
        <dc:format>image/svg+xml</dc:format>
        <dc:type
           rdf:resource="http://purl.org/dc/dcmitype/StillImage" />
        <dc:title></dc:title>
      </cc:Work>
    </rdf:RDF>
  </metadata>
  <sodipodi:namedview
     pagecolor="#ffffff"
     bordercolor="#666666"
     borderopacity="1"
     objecttolerance="10"
     gridtolerance="10"
     guidetolerance="10"
     inkscape:pageopacity="0"
     inkscape:pageshadow="2"
     inkscape:window-width="1536"
     inkscape:window-height="801"
     id="namedview44"
     showgrid="false"
     inkscape:zoom="0.71772603"
     inkscape:cx="199.93701"
     inkscape:cy="162.14174"
     inkscape:window-x="-8"
     inkscape:window-y="-8"
     inkscape:window-maximized="1"
     inkscape:current-layer="svg42" />
  <defs
     id="defs12">
    <radialGradient
       cx="81000"
       cy="40000"
       r="2020"
       gradientUnits="userSpaceOnUse"
       id="color-1">
      <stop
         offset="1"
         stop-color="#5c6bc0"
         id="stop2" />
      <stop
         offset="1"
         stop-color="#1a237e"
         id="stop4" />
    </radialGradient>
    <radialGradient
       cx="20000"
       cy="40000"
       r="2020"
       gradientUnits="userSpaceOnUse"
       id="color-2">
      <stop
         offset="1"
         stop-color="#5c6bc0"
         id="stop7" />
      <stop
         offset="1"
         stop-color="#1a237e"
         id="stop9" />
    </radialGradient>
  </defs>
  <path
     style="font-family:none;mix-blend-mode:normal;fill:#1a237e;fill-rule:nonzero;stroke:none;stroke-width:0;stroke-linecap:butt;stroke-linejoin:miter;stroke-miterlimit:10;stroke-dasharray:none;stroke-dashoffset:0"
     inkscape:connector-curvature="0"
     id="path14"
     d="m 71000,40250 c -138.071,0 -250,-111.929 -250,-250 v 0 c 0,-138.071 111.929,-250 250,-250 h 11000 c 138.071,0 250,111.929 250,250 v 0 c 0,138.071 -111.929,250 -250,250 z" />
  <path
     style="font-family:none;mix-blend-mode:normal;fill:#1a237e;fill-rule:nonzero;stroke:none;stroke-width:0;stroke-linecap:butt;stroke-linejoin:miter;stroke-miterlimit:10;stroke-dasharray:none;stroke-dashoffset:0"
     inkscape:connector-curvature="0"
     id="path16"
     d="m 62400,40250 c -138.071,0 -250,-111.929 -250,-250 v 0 c 0,-138.071 111.929,-250 250,-250 h 4600 c 138.071,0 250,111.929 250,250 v 0 c 0,138.071 -111.929,250 -250,250 z" />
  <path
     style="font-family:none;mix-blend-mode:normal;fill:#1a237e;fill-rule:nonzero;stroke:none;stroke-width:1;stroke-linecap:butt;stroke-linejoin:miter;stroke-miterlimit:10;stroke-dasharray:none;stroke-dashoffset:0"
     inkscape:connector-curvature="0"
     id="path18"
     d="m 38000,41500 v -1750 h 500 v 1750 z m 2500,0 c 0,690.356 -559.644,1250 -1250,1250 -690.356,0 -1250,-559.644 -1250,-1250 z m -2000,0 c 0,414.214 335.786,750 750,750 414.214,0 750,-335.786 750,-750 z m 1500,0 v -3000 h 500 v 3000 z m 0,-3000 c 0,-690.356 559.644,-1250 1250,-1250 690.356,0 1250,559.644 1250,1250 z m 2000,0 c 0,-414.214 -335.786,-750 -750,-750 -414.214,0 -750,335.786 -750,750 z m 0,3000 v -3000 h 500 v 3000 z m 2500,0 c 0,690.356 -559.644,1250 -1250,1250 -690.356,0 -1250,-559.644 -1250,-1250 z m -2000,0 c 0,414.214 335.786,750 750,750 414.214,0 750,-335.786 750,-750 z m 1500,0 v -3000 h 500 v 3000 z m 0,-3000 c 0,-690.356 559.644,-1250 1250,-1250 690.356,0 1250,559.644 1250,1250 z m 2000,0 c 0,-414.214 -335.786,-750 -750,-750 -414.214,0 -750,335.786 -750,750 z m 0,3000 v -3000 h 500 v 3000 z m 2500,0 c 0,690.356 -559.644,1250 -1250,1250 -690.356,0 -1250,-559.644 -1250,-1250 z m -2000,0 c 0,414.214 335.786,750 750,750 414.214,0 750,-335.786 750,-750 z m 1500,0 v -3000 h 500 v 3000 z m 0,-3000 c 0,-690.356 559.644,-1250 1250,-1250 690.356,0 1250,559.644 1250,1250 z m 2000,0 c 0,-414.214 -335.786,-750 -750,-750 -414.214,0 -750,335.786 -750,750 z m 0,3000 v -3000 h 500 v 3000 z m 2500,0 c 0,690.356 -559.644,1250 -1250,1250 -690.356,0 -1250,-559.644 -1250,-1250 z m -2000,0 c 0,414.214 335.786,750 750,750 414.214,0 750,-335.786 750,-750 z m 1500,0 v -3000 h 500 v 3000 z m 0,-3000 c 0,-690.356 559.644,-1250 1250,-1250 690.356,0 1250,559.644 1250,1250 z m 2000,0 c 0,-414.214 -335.786,-750 -750,-750 -414.214,0 -750,335.786 -750,750 z m 0,3000 v -3000 h 500 v 3000 z m 2500,0 c 0,690.356 -559.644,1250 -1250,1250 -690.356,0 -1250,-559.644 -1250,-1250 z m -2000,0 c 0,414.214 335.786,750 750,750 414.214,0 750,-335.786 750,-750 z m 1500,0 v -3000 h 500 v 3000 z m 0,-3000 c 0,-690.356 559.644,-1250 1250,-1250 690.356,0 1250,559.644 1250,1250 z m 2000,0 c 0,-414.214 -335.786,-750 -750,-750 -414.214,0 -750,335.786 -750,750 z m 0,3000 v -3000 h 500 v 3000 z m 2500,0 c 0,690.356 -559.644,1250 -1250,1250 -690.356,0 -1250,-559.644 -1250,-1250 z m -2000,0 c 0,414.214 335.786,750 750,750 414.214,0 750,-335.786 750,-750 z m 1500,0 v -3000 h 500 v 3000 z m 0,-3000 c 0,-690.356 559.644,-1250 1250,-1250 690.356,0 1250,559.644 1250,1250 z m 2000,0 c 0,-414.214 -335.786,-750 -750,-750 -414.214,0 -750,335.786 -750,750 z m 0,1750 v -1750 h 500 v 1750 z" />
  <path
     style="font-family:none;mix-blend-mode:normal;fill:#1a237e;fill-rule:nonzero;stroke:none;stroke-width:0;stroke-linecap:butt;stroke-linejoin:miter;stroke-miterlimit:10;stroke-dasharray:none;stroke-dashoffset:0"
     inkscape:connector-curvature="0"
     id="path20"
     d="m 34000,40250 c -138.071,0 -250,-111.929 -250,-250 v 0 c 0,-138.071 111.929,-250 250,-250 h 4000 c 138.071,0 250,111.929 250,250 v 0 c 0,138.071 -111.929,250 -250,250 z" />
  <path
     style="font-family:none;mix-blend-mode:normal;fill:#1a237e;fill-rule:nonzero;stroke:none;stroke-width:0;stroke-linecap:butt;stroke-linejoin:miter;stroke-miterlimit:10;stroke-dasharray:none;stroke-dashoffset:0"
     inkscape:connector-curvature="0"
     id="path22"
     d="m 20000,40250 c -138.071,0 -250,-111.929 -250,-250 v 0 c 0,-138.071 111.929,-250 250,-250 h 10000 c 138.071,0 250,111.929 250,250 v 0 c 0,138.071 -111.929,250 -250,250 z" />
  <path
     style="font-family:none;mix-blend-mode:normal;fill:#1a237e;fill-rule:nonzero;stroke:none;stroke-width:0;stroke-linecap:butt;stroke-linejoin:miter;stroke-miterlimit:10;stroke-dasharray:none;stroke-dashoffset:0"
     inkscape:connector-curvature="0"
     id="path24"
     d="M 400,85000 H -400 V 0 h 800 z" />
  <path
     style="font-family:none;mix-blend-mode:normal;fill:#1a237e;fill-rule:nonzero;stroke:none;stroke-width:0;stroke-linecap:butt;stroke-linejoin:miter;stroke-miterlimit:10;stroke-dasharray:none;stroke-dashoffset:0"
     inkscape:connector-curvature="0"
     id="path26"
     d="m 105000,84600 v 800 H 0 v -800 z" />
  <path
     style="font-family:none;mix-blend-mode:normal;fill:#1a237e;fill-rule:nonzero;stroke:none;stroke-width:0;stroke-linecap:butt;stroke-linejoin:miter;stroke-miterlimit:10;stroke-dasharray:none;stroke-dashoffset:0"
     inkscape:connector-curvature="0"
     id="path28"
     d="m 104600,0 h 800 v 85000 h -800 z" />
  <path
     style="font-family:none;mix-blend-mode:normal;fill:#1a237e;fill-rule:nonzero;stroke:none;stroke-width:0;stroke-linecap:butt;stroke-linejoin:miter;stroke-miterlimit:10;stroke-dasharray:none;stroke-dashoffset:0"
     inkscape:connector-curvature="0"
     id="path30"
     d="M 0,400 V -400 H 105000 V 400 Z" />
  <path
     style="font-family:none;mix-blend-mode:normal;fill:#3f51b5;fill-rule:nonzero;stroke:none;stroke-width:1;stroke-linecap:butt;stroke-linejoin:miter;stroke-miterlimit:10;stroke-dasharray:none;stroke-dashoffset:0"
     inkscape:connector-curvature="0"
     id="path32"
     d="m 66500,40000 c 0,-1209.479 858.88,-2218.356 2000,-2449.991 v 4899.982 C 67358.88,42218.356 66500,41209.479 66500,40000 Z m 5000,0 c 0,1209.479 -858.88,2218.356 -2000,2449.991 v -4899.982 c 1141.12,231.635 2000,1240.512 2000,2449.991 z" />
  <path
     style="font-family:none;mix-blend-mode:normal;fill:#3f51b5;fill-rule:nonzero;stroke:none;stroke-width:1;stroke-linecap:butt;stroke-linejoin:miter;stroke-miterlimit:10;stroke-dasharray:none;stroke-dashoffset:0"
     inkscape:connector-curvature="0"
     id="path34"
     d="m 29500,40000 c 0,-1209.479 858.88,-2218.356 2000,-2449.991 v 4899.982 C 30358.88,42218.356 29500,41209.479 29500,40000 Z m 5000,0 c 0,1209.479 -858.88,2218.356 -2000,2449.991 v -4899.982 c 1141.12,231.635 2000,1240.512 2000,2449.991 z" />
  <path
     inkscape:connector-curvature="0"
     style="font-family:none;mix-blend-mode:normal;fill:url(#color-1);fill-rule:nonzero;stroke:none;stroke-width:1;stroke-linecap:butt;stroke-linejoin:miter;stroke-miterlimit:10;stroke-dasharray:none;stroke-dashoffset:0"
     id="path36"
     d="m 78980,40000 c 0,-1115.615 904.385,-2020 2020,-2020 1115.615,0 2020,904.385 2020,2020 0,1115.615 -904.385,2020 -2020,2020 -1115.615,0 -2020,-904.385 -2020,-2020 z" />
  <path
     inkscape:connector-curvature="0"
     style="font-family:none;mix-blend-mode:normal;fill:url(#color-2);fill-rule:nonzero;stroke:none;stroke-width:1;stroke-linecap:butt;stroke-linejoin:miter;stroke-miterlimit:10;stroke-dasharray:none;stroke-dashoffset:0"
     id="path38"
     d="m 17980,40000 c 0,-1115.615 904.385,-2020 2020,-2020 1115.615,0 2020,904.385 2020,2020 0,1115.615 -904.385,2020 -2020,2020 -1115.615,0 -2020,-904.385 -2020,-2020 z" />
</svg>
