<?xml version="1.0" encoding="UTF-8" standalone="no"?>
<svg
   xmlns:dc="http://purl.org/dc/elements/1.1/"
   xmlns:cc="http://creativecommons.org/ns#"
   xmlns:rdf="http://www.w3.org/1999/02/22-rdf-syntax-ns#"
   xmlns:svg="http://www.w3.org/2000/svg"
   xmlns="http://www.w3.org/2000/svg"
   xmlns:sodipodi="http://sodipodi.sourceforge.net/DTD/sodipodi-0.dtd"
   xmlns:inkscape="http://www.inkscape.org/namespaces/inkscape"
   width="105.80000000000001mm"
   height="85.80000000000003mm"
   viewBox="0 0 105800.00000000001 85800.00000000003"
   version="1.1"
   id="svg42"
   sodipodi:docname="F_500_64.svg"
   inkscape:version="0.92.1 r15371">
  <metadata
     id="metadata46">
    <rdf:RDF>
      <cc:Work
         rdf:about="">
        <dc:format>image/svg+xml</dc:format>
        <dc:type
           rdf:resource="http://purl.org/dc/dcmitype/StillImage" />
        <dc:title />
      </cc:Work>
    </rdf:RDF>
  </metadata>
  <sodipodi:namedview
     pagecolor="#ffffff"
     bordercolor="#666666"
     borderopacity="1"
     objecttolerance="10"
     gridtolerance="10"
     guidetolerance="10"
     inkscape:pageopacity="0"
     inkscape:pageshadow="2"
     inkscape:window-width="1536"
     inkscape:window-height="801"
     id="namedview44"
     showgrid="false"
     inkscape:zoom="1.4354521"
     inkscape:cx="199.93701"
     inkscape:cy="162.14174"
     inkscape:window-x="-8"
     inkscape:window-y="-8"
     inkscape:window-maximized="1"
     inkscape:current-layer="svg42" />
  <defs
     id="defs12">
    <radialGradient
       cx="81000"
       cy="40000"
       r="2020"
       gradientUnits="userSpaceOnUse"
       id="color-1">
      <stop
         offset="1"
         stop-color="#5c6bc0"
         id="stop2" />
      <stop
         offset="1"
         stop-color="#1a237e"
         id="stop4" />
    </radialGradient>
    <radialGradient
       cx="20000"
       cy="40000"
       r="2020"
       gradientUnits="userSpaceOnUse"
       id="color-2">
      <stop
         offset="1"
         stop-color="#5c6bc0"
         id="stop7" />
      <stop
         offset="1"
         stop-color="#1a237e"
         id="stop9" />
    </radialGradient>
  </defs>
  <path
     style="font-family:none;mix-blend-mode:normal;fill:#1a237e;fill-rule:nonzero;stroke:none;stroke-width:0;stroke-linecap:butt;stroke-linejoin:miter;stroke-miterlimit:10;stroke-dasharray:none;stroke-dashoffset:0"
     d="M 155.90625 140.78711 C 153.29703 140.78711 151.18164 142.9025 151.18164 145.51172 L 151.18164 156.84961 C 151.18164 158.41514 149.91124 159.68555 148.3457 159.68555 C 146.78017 159.68555 145.51172 158.41514 145.51172 156.84961 L 145.51172 150.23633 L 143.62109 150.23633 L 130.3418 150.23633 C 129.92973 146.09295 126.8455 142.73617 122.83398 141.92188 L 122.83398 160.44141 C 126.84543 159.62713 129.92964 156.27022 130.3418 152.12695 L 143.62109 152.12695 L 143.62109 156.84961 C 143.62109 159.45883 145.73648 161.57422 148.3457 161.57422 C 150.95492 161.57422 153.07031 159.45883 153.07031 156.84961 L 153.07031 145.51172 C 153.07031 143.94619 154.34072 142.67773 155.90625 142.67773 C 157.47178 142.67773 158.74023 143.94619 158.74023 145.51172 L 158.74023 156.84961 C 158.74023 159.45883 160.85562 161.57422 163.46484 161.57422 C 166.07406 161.57422 168.18945 159.45883 168.18945 156.84961 L 168.18945 145.51172 C 168.18945 143.94619 169.4579 142.67773 171.02344 142.67773 C 172.58897 142.67773 173.85742 143.94619 173.85742 145.51172 L 173.85742 156.84961 C 173.85742 159.45883 175.97281 161.57422 178.58203 161.57422 C 181.19125 161.57422 183.30664 159.45883 183.30664 156.84961 L 183.30664 145.51172 C 183.30664 143.94619 184.57704 142.67773 186.14258 142.67773 C 187.70811 142.67773 188.97656 143.94619 188.97656 145.51172 L 188.97656 156.84961 C 188.97656 159.45883 191.09195 161.57422 193.70117 161.57422 C 196.31039 161.57422 198.42578 159.45883 198.42578 156.84961 L 198.42578 145.51172 C 198.42578 143.94619 199.69423 142.67773 201.25977 142.67773 C 202.8253 142.67773 204.09375 143.94619 204.09375 145.51172 L 204.09375 156.84961 C 204.09375 159.45883 206.20914 161.57422 208.81836 161.57422 C 211.42758 161.57422 213.54297 159.45883 213.54297 156.84961 L 213.54297 145.51172 C 213.54297 143.94619 214.81337 142.67773 216.37891 142.67773 C 217.94444 142.67773 219.21289 143.94619 219.21289 145.51172 L 219.21289 156.84961 C 219.21289 159.45883 221.32828 161.57422 223.9375 161.57422 C 226.54672 161.57422 228.66211 159.45883 228.66211 156.84961 L 228.66211 145.51172 C 228.66211 143.94619 229.93056 142.67773 231.49609 142.67773 C 233.06163 142.67773 234.33008 143.94619 234.33008 145.51172 L 234.33008 152.12695 L 236.2207 152.12695 L 251.39062 152.12695 C 251.80279 156.27022 254.88699 159.62713 258.89844 160.44141 L 258.89844 141.92188 C 254.88692 142.73617 251.80269 146.09295 251.39062 150.23633 L 236.2207 150.23633 L 236.2207 145.51172 C 236.2207 142.9025 234.10531 140.78711 231.49609 140.78711 C 228.88687 140.78711 226.77148 142.9025 226.77148 145.51172 L 226.77148 156.84961 C 226.77148 158.41514 225.50303 159.68555 223.9375 159.68555 C 222.37197 159.68555 221.10156 158.41514 221.10156 156.84961 L 221.10156 145.51172 C 221.10156 142.9025 218.98813 140.78711 216.37891 140.78711 C 213.76969 140.78711 211.6543 142.9025 211.6543 145.51172 L 211.6543 156.84961 C 211.6543 158.41514 210.38389 159.68555 208.81836 159.68555 C 207.25283 159.68555 205.98438 158.41514 205.98438 156.84961 L 205.98438 145.51172 C 205.98438 142.9025 203.86899 140.78711 201.25977 140.78711 C 198.65055 140.78711 196.53516 142.9025 196.53516 145.51172 L 196.53516 156.84961 C 196.53516 158.41514 195.26671 159.68555 193.70117 159.68555 C 192.13564 159.68555 190.86523 158.41514 190.86523 156.84961 L 190.86523 145.51172 C 190.86523 142.9025 188.7518 140.78711 186.14258 140.78711 C 183.53336 140.78711 181.41797 142.9025 181.41797 145.51172 L 181.41797 156.84961 C 181.41797 158.41514 180.14756 159.68555 178.58203 159.68555 C 177.0165 159.68555 175.74805 158.41514 175.74805 156.84961 L 175.74805 145.51172 C 175.74805 142.9025 173.63266 140.78711 171.02344 140.78711 C 168.41422 140.78711 166.29883 142.9025 166.29883 145.51172 L 166.29883 156.84961 C 166.29883 158.41514 165.03038 159.68555 163.46484 159.68555 C 161.89931 159.68555 160.63086 158.41514 160.63086 156.84961 L 160.63086 145.51172 C 160.63086 142.9025 158.51547 140.78711 155.90625 140.78711 z M 119.05469 141.92188 C 115.04316 142.73617 111.95893 146.09294 111.54688 150.23633 L 75.589844 150.23633 C 75.068001 150.23633 74.646484 150.6598 74.646484 151.18164 C 74.646484 151.70348 75.068001 152.12695 75.589844 152.12695 L 111.54688 152.12695 C 111.95902 156.27024 115.04323 159.62712 119.05469 160.44141 L 119.05469 141.92188 z M 262.67773 141.92188 L 262.67773 160.44141 C 266.68919 159.62712 269.7734 156.27024 270.18555 152.12695 L 309.92188 152.12695 C 310.44372 152.12695 310.86523 151.70348 310.86523 151.18164 C 310.86523 150.6598 310.44372 150.23633 309.92188 150.23633 L 270.18555 150.23633 C 269.77349 146.09294 266.68926 142.73617 262.67773 141.92188 z "
     transform="scale(264.58333)"
     id="path14" />
</svg>
